<?xml version="1.0" encoding="utf-8"?>
<!-- Generator: Adobe Illustrator 21.0.2, SVG Export Plug-In . SVG Version: 6.00 Build 0)  -->
<svg version="1.1" id="Layer_1" xmlns="http://www.w3.org/2000/svg" xmlns:xlink="http://www.w3.org/1999/xlink" x="0px" y="0px"
	 viewBox="0 0 500 360" style="enable-background:new 0 0 500 360;" xml:space="preserve">
<style type="text/css">
	.st0{fill:#f7faeb;}
	.st1{opacity:0.8;}
	.st2{fill:#c0f9a8;}
	.st3{fill:#2de19f;}
	.st4{fill:#A8D29F;}
	.st5{fill:#FFB27D;}
	.st6{fill:#f7ff56;}
	.st7{fill:#1C3154;}
	.st8{fill:#72ce08;}
	.st9{fill:#4c8b05;}
	.st10{fill:#c2c932;}
	.st11{fill:#ED985F;}
	.st12{fill:#2C3A64;}
	.st13{fill:#F99746;}
	.st14{fill:#ED7D2B;}
	.st15{fill:#0aa169;}
	.st16{fill:#16c786;}
	.st17{fill:#0fab71;}
	.st18{opacity:0.4;fill:#0fab71;}
	.st19{fill:#7b8100;}
	.st20{fill:#E9F3FE;}
	.st21{fill:#F77D48;}
	.st22{fill:#f7faeb;}
	.st23{fill:#113C68;}
	.st24{fill:#15447C;}
	.st25{fill:#FCA56B;}
	.st26{fill:#163560;}
	.st27{fill:#7b8100;}
	.st28{opacity:0.5;}
	.st29{fill:#B3CFF9;}
	.st30{fill:#ED975D;}
	.st31{fill:#FFFFFF;}
	.st32{fill:#1F447F;}
	.st33{fill:#B5453C;}
	.st34{fill:#E8945B;}
</style>
<g>
	<path class="st0" d="M472.9,355.7c-30.9,0-448.8-0.9-448.8-1c-0.2-0.4-53-65.2,13.5-133c33-33.6-30.3-77.1,0-114.4
		c51.9-64,103.2-27.9,146-45.9c7.6-3.2,15.1-8.3,22.7-16.1c4.3-4.4,9-8.3,14-11.6c0.8-0.5,1.5-1,2.3-1.5c3-1.9,6.1-3.5,9.3-5.1
		c2.2-1,4.3-2,6.6-2.8h0c3.5-1.4,7.2-2.6,10.9-3.6c5.3-1.4,10.7-2.5,16.3-3.2c2.4-0.3,4.9-0.6,7.3-0.7
		c47.8-3.6,101.6,16.6,129.3,46.2c5.6,5.9,31,36.7,11,79c-12.6,26.7,40.3,52.2,59.2,82.7C520.4,302.3,473.3,354.7,472.9,355.7z"/>
	<g class="st1">
		<path class="st2" d="M364.7,175.4c-1.3,3.5-2.8,6.8-4.7,9.9c-4.4,7.5-10.2,13.8-17,18.6c-15.7,11.3-36.6,14.9-56.2,7.8
			c-23.3-8.5-38.3-29.7-39.9-53c-0.2-3.1-0.2-6.2,0.1-9.3c0.4-5.2,1.6-10.5,3.5-15.6c1.5-4.2,3.4-8.1,5.7-11.7c0,0,0.1-0.1,0.1-0.1
			c6.3-10,15.3-17.7,25.6-22.5c2.9-1.4,6-2.5,9.1-3.4c1.5-0.4,3-0.8,4.5-1.1c10.6-2.2,22-1.6,32.9,2.4c1.5,0.5,2.9,1.1,4.3,1.7
			c2,0.9,3.8,1.9,5.7,2.9c7.7,4.5,14.1,10.4,19,17.4l0,0c3.1,4.3,5.5,9.1,7.4,14c1,2.6,1.8,5.3,2.3,8c0.4,1.7,0.7,3.4,0.9,5.1
			c0.5,4.2,0.7,8.4,0.3,12.7C367.8,164.8,366.6,170.2,364.7,175.4z"/>
		<g>
			<path class="st3" d="M297.5,122.1c-3.6,2.8-2.6,10.2-8.9,6c-6.2-4.2-10.1-6.5-11.9-2.8c-1.8,3.7,3.7,5.7,2.3,9.7
				c-1.4,4-4.4,4.4-7.5,1.1c-3.1-3.3-3.2-6.4-8.2-6.3c-5,0.1-7.2-2-6.9-5.7c0-0.7,0-1.2-0.2-1.8c0,0,0.1-0.1,0.1-0.1
				c6.3-10,15.3-17.7,25.6-22.5c2.9-1.4,6-2.5,9.1-3.4c1.5-0.4,3-0.8,4.5-1.1c1.8,0.7,3.6,2.2,4.6,5.1c2.2,6.4,5.7,4.9,2.7,10.2
				c-3,5.4-1.8,6.7,1.5,7.6c3.3,1,7.1,2.4,6.6,5C310.4,125.7,301.1,119.3,297.5,122.1z"/>
			<path class="st3" d="M364.7,175.4c-1.3,3.5-2.8,6.8-4.7,9.9c-4.4,7.5-10.2,13.8-17,18.6c-1.7-0.1-3.2-0.6-4.5-1.8
				c-6.1-5.4,2-11.2,6.2-14c4.2-2.8-3.6-3.7-7.6-9.2c-4-5.5,5.3-12.9-0.6-13.3c-6-0.4-13.3-0.8-14.5-7.2c-1.2-6.4,5.1-5.1,4-10.5
				c-1.1-5.4,4.1-6.4,9.7-4.9c5.6,1.5,6.3-2.6,13.2-0.7c6.9,1.9,3.7,10.4,11.3,12.5c7.6,2.1,6.7,3.7,6.7,3.7c0.5,0.2,1,0.5,1.4,0.9
				C367.8,164.8,366.6,170.2,364.7,175.4z"/>
			<path class="st3" d="M367.9,146.8c-7.2,0.8-6.8-8.3-12.9-7.8c-6.2,0.5-3.5-3.9-6.6-8.4c-3.1-4.6-13.4-2.1-11.3-6.7
				c2.1-4.6,7.9-1,10.6-4.3c2.7-3.3,8.4-0.2,8.4-0.2c0.4,0,0.8,0,1.2,0.2c0,0,0,0,0,0c3.1,4.3,5.5,9.1,7.4,14c1,2.6,1.8,5.3,2.3,8
				C367.3,143.4,367.6,145.1,367.9,146.8z"/>
			<path class="st3" d="M321.9,111.6c0,0,4.9-3.5,0.3-6.7c-4.6-3.2-5.2-1.4-9-3.3c-3.8-1.9-6.5,0.6-4.8,5.1
				c1.8,4.5,1.8,11.8,5.8,9.3C318.2,113.6,318.6,110.8,321.9,111.6z"/>
		</g>
	</g>
	<path class="st4" d="M37.9,355h21.2c1.1-1-0.8-3.2-2.8-3.3c-0.9-0.1-2,0.1-3.2,0.4c-0.3-3.9-2-21.3-8.2-20.6c-7.1,0.8,0,7.7,2,11.7
		c1.5,3,3,7.3,3.7,9.4c-0.6,0.1-1.2,0.2-1.8,0.4c-0.9-2.9-4.4-12.5-8.8-12c-5.2,0.7-3.1,4.5,0.6,6.8c2.7,1.7,6,4.1,7.6,5.3
		c-1.3,0.2-2.7,0.4-4.1,0.3C40.3,353.3,38.6,354.4,37.9,355z"/>
	<path class="st4" d="M375.1,355h-19.7c-1.1-0.9,0.7-2.9,2.6-3.1c0.8-0.1,1.8,0.1,3,0.4c0.3-3.6,1.8-19.8,7.6-19.1
		c6.6,0.7,0,7.1-1.9,10.9c-1.4,2.8-2.8,6.8-3.5,8.7c0.5,0.1,1.1,0.2,1.6,0.3c0.9-2.7,4.1-11.6,8.2-11.1c4.8,0.6,2.9,4.2-0.5,6.3
		c-2.5,1.6-5.6,3.8-7.1,4.9c1.2,0.2,2.5,0.3,3.8,0.3C372.8,353.4,374.5,354.4,375.1,355z"/>
	<g>
		<path class="st5" d="M389.2,225.9c0,0,0.5-4.7-2-4.5c-2.4,0.2-3.1,1.3-2.8,2.2c0.3,0.9,2.6,3.9,2.6,3.9L389.2,225.9z"/>
		<path class="st6" d="M427.1,235.3c0,0-2.7,3.2-8.5,6.8c-0.5,0.3-1.1,0.7-1.7,1c-2.3,1.3-4.9,2.7-7.9,3.9c-0.3,0.1-0.7,0.3-1.2,0.4
			c-3.5,1.3-9.9,3-13.8,3.2c-0.3,0-0.7,0-1,0c-6-0.2-6.8-23.7-6.8-23.7s0.7-2.3,3.8-1.8c0,0,4.7,13.2,6.4,14.3
			c1.5,1,10.1-12.1,17.5-13C418.9,226,427.1,235.3,427.1,235.3z"/>
		<path class="st7" d="M410.9,349.4c0,0,0.4,5.2-0.6,5.7l-13.9,0c0,0,0-1.6,2.2-2c2.2-0.4,6.2-1.7,6.8-4.6
			C406.1,345.6,410.9,349.4,410.9,349.4z"/>
		<path class="st8" d="M400.7,287.1c0.1,3.4,0.2,6.8,0.5,10c1.5,14.8,2,32.7,2.3,36.2c0.4,6,1.6,15.6,1.6,15.6s2.3,2.2,6.9,1.2
			c0,0,3.8-13.8,4.6-28.3c0-0.2,0-0.5,0-0.7c0.1-1.9,0.2-4.1,0.3-6.5c0.7-15.9,1.5-39.4,1.5-39.4l-17.5-4.1
			C400.9,270.9,400.5,278.7,400.7,287.1z"/>
		<path class="st9" d="M400.7,287.1c4.4,7.7,12.9,21.7,16.3,27.4c0.7-15.9,1.5-39.4,1.5-39.4l-17.5-4.1
			C400.9,270.9,400.5,278.7,400.7,287.1z"/>
		<path class="st10" d="M407.8,247.5c-3.5,1.3-9.9,3-13.8,3.2c0.6-0.1,5-1,6.7-3c1.8-2.1,4.7-7.9,7.1-5.5
			C408.8,243.3,408.4,245.5,407.8,247.5z"/>
		<path class="st5" d="M437.2,284.6c0,0,1.1,4.3,0.9,5.2c-0.2,0.9-1.2,4.2-1.9,4.9c-0.7,0.8-0.7-3.5-1.1-4.1
			c-0.4-0.7-0.2,1.6-0.6,1.8c-0.4,0.2-0.9-1.7-1.2-2.4s0.9-3,1.1-4.7C434.5,283.6,437.2,284.6,437.2,284.6z"/>
		<path class="st7" d="M445.7,343.6c0,0,2.5,2.3,2,3.9c-0.5,1.6-2.7,2.7-3,4.6s-1.5,3-2.6,3c-1.1,0-5.2,0-5.2,0s-0.8-1.4,1.1-1.8
			c1.9-0.4,2.7-2.7,2.5-4.9c-0.1-2.1,0.2-5,0.2-5l4.1-1L445.7,343.6z"/>
		<path class="st8" d="M403.7,275.4c0,0,16.4,35,25.1,50.4c8.7,15.4,11.4,19.7,11.4,19.7s5-2,5.4-3.3c0,0-3.3-29.7-9.2-36.9
			c-3.3-4.1-7.2-16.4-7.4-20.7c-0.2-4.3-4-14.5-4-14.5L403.7,275.4z"/>
		<path class="st6" d="M400.6,273.6c0,0,5.3,5.7,14.4,7.5c4,0.8,12.1,1.5,14.1-1.3c0.5-0.7,0.5-1.6,0.4-3.2
			c-0.3-4-1.3-11.7,3.3-27.2c0.4-1.4,0.7-2.8,0.9-4.1c1-7.9,0.9-13.9-6-17.1c-10.3-4.8-14.6-0.9-14.6-0.9s-5.5,2.6-8,10
			C400,252.1,400.6,273.6,400.6,273.6z"/>
		<path class="st5" d="M421.4,226.7c-1.7,1.2-4.8,2-7.7,0.5c-0.2-0.1-0.2-1.7-0.1-3.2c0.1-1.5,0.2-2.9,0.2-2.9l3.7-2.4l3.5-2.3
			C420.5,224.3,422.2,226.1,421.4,226.7z"/>
		<path class="st11" d="M420.3,219.6c0,0-2.4,3.6-6.8,4.4c0.1-1.5,0.2-3.1,0.2-3.1l3.7-2.2L420.3,219.6z"/>
		<path class="st5" d="M410.4,220.1c0,0,8.9,3.3,10.9-2.2c2-5.5,4.5-8.7-1.1-11.1c-5.6-2.3-7.5-0.7-8.6,1
			C410.5,209.6,408.2,219.1,410.4,220.1z"/>
		<path class="st12" d="M426.8,207.5c0.1-0.1,0.3-0.1,0.7-0.1c0,0-0.3-0.3-0.8-0.4c0-0.6-0.1-1.7-1.1-2.2c0,0,0.5,0.4,0.4,1
			c-0.9-1.5-3.3-2.8-10.5-3.7c-9.4-1.1-7.5,5.4-6.5,6.4c1.1,0.9,4.5-0.4,6.7,0.2c2.2,0.6,2,3.9,2.7,4.5c0.7,0.6,0.5-0.2,1.6-0.5
			c1.1-0.3,0.9,1.5,0.4,2.5c-0.5,1,0.6,2.8,0.6,2.8s0,0,1.7-1.3c1.7-1.3,4.4-7.5,4-9C426.9,207.8,426.9,207.7,426.8,207.5z"/>
		<path class="st10" d="M429.5,276.5c-0.3-4-1.3-11.7,3.3-27.2c0.4-1.4,0.7-2.8,0.9-4.1l0,0c-3.4-1.1-9.5,1.4-9.5,1.4
			S422.6,267,429.5,276.5z"/>
		<path class="st6" d="M429.4,229c0,0,4.1,1.5,6.8,12.5c1.7,7.3,5,17.9,5.3,21.3c0.4,3.4-3.7,23-3.7,23s-0.6,0.4-2,0.1
			c-1.3-0.3-2-1.2-2-1.2s-1-13.1-0.7-19.3c0.1-2.6-11.9-18.8-18.3-20.9C412.4,243.8,429.4,229,429.4,229z"/>
		<path class="st3" d="M371.4,214.8c0,0,12-0.3,25.8,2.2l1.4-3.6l1.6-4c0,0-13.9-6-22.2-14.3L371.4,214.8z"/>
		<path class="st13" d="M378.2,194.9l-6.9,20.3l0,0c-1-0.3-1.6-1.4-1.2-2.4l6.1-17.1C376.5,194.9,377.4,194.5,378.2,194.9
			L378.2,194.9z"/>
		<path class="st13" d="M384.8,229.9L384.8,229.9c1.3,0.3,2.7-0.6,2.9-1.9l2.4-11.9c0.3-1.3-0.6-2.7-1.9-2.9l0,0
			c-1.3-0.3-2.7,0.6-2.9,1.9l-2.4,11.9C382.6,228.4,383.5,229.7,384.8,229.9z"/>
		<path class="st17" d="M371.4,214.8c0,0,12-0.3,25.8,2.2l1.4-3.6C385.7,210.7,371.4,214.8,371.4,214.8z"/>
		<path class="st13" d="M393.4,216.3l3.7,0.7c-0.1,0,3.5,0.7,4.6-2.4c0.1-0.2,0.2-0.4,0.2-0.7c0.9-3.9-1.2-4.6-1.2-4.6l-4.8-1.9
			l-1.5,5.4c0,0,0,0,0,0L393.4,216.3z"/>
		<path class="st14" d="M393.4,216.3l3.7,0.7c-0.1,0,3.5,0.7,4.6-2.4c-2.1-1.5-7.4-1.8-7.4-1.8s0,0,0,0L393.4,216.3z"/>
		<path class="st5" d="M385.1,218.5c0,0,1.8,0.7,1.5,1.5c-0.3,0.8-2.7,1.9-3,1.3C383.2,220.6,384,217.8,385.1,218.5z"/>
		<path class="st5" d="M389.2,225.2c0,0,0.3-1.9,0.4-2.7c0-0.9,0.1-1.6-0.1-1.6c-0.2,0-0.3,0.1-0.4,0.4c-0.1,0.3-0.4,2-0.4,2
			l0.2,1.7L389.2,225.2z"/>
	</g>
	<g>
		<path class="st15" d="M208,224l-10.4,123.4c0,0-1.1,7.5,4.5,7.5c9.2,0,45.5,0,45.5,0s-6.9-1.6-6.8-5.1c0.1-4.1,12.1-127,12.1-127
			L208,224z"/>
		<path class="st16" d="M251,352.7c-1.8,0-37,0.1-45.9,0c-3.9,0-4.6-3.5-4.6-5.7c0-1.1,0.1-1.8,0.1-1.8l0.3-3.2l0.7-8.2l0.6-7.2
			l0.8-9.3l0.7-7.8l7.4-87.7l45-1.2c0,0-5.1,51.4-8.7,88.9c-0.4,4.2-0.8,8.2-1.1,11.9c-0.1,1.2-0.2,2.4-0.3,3.5
			c-0.3,3.5-0.6,6.8-0.9,9.7c-0.1,1.5-0.3,2.9-0.4,4.2c-0.5,5-0.7,8.3-0.7,8.9c0,0.4,0,0.7,0.1,1C244.7,352.5,250.4,352.7,251,352.7
			z"/>
		<polygon class="st3" points="98.8,156.8 124,258.4 127.5,272.3 139.3,319.6 358.1,319.6 314.7,156.8 		"/>
		<polygon class="st16" points="98.8,156.8 95.2,158 134.6,323.1 139.3,319.6 		"/>
		<polygon class="st15" points="134.6,323.1 352.1,323.1 358.1,319.6 139.3,319.6 		"/>
		
			<rect x="211" y="352.7" transform="matrix(-1 -1.224647e-16 1.224647e-16 -1 469.0544 707.6706)" class="st3" width="47.1" height="2.2"/>
		<polygon class="st17" points="246.1,323.1 245.9,324.8 201.6,333.8 202.2,326.6 202.5,323.1 		"/>
		<path class="st18" d="M251,352.7c-1.8,0-37,0.1-45.9,0c-3.9,0-4.6-3.5-4.6-5.7l44.1-8.3c-0.5,5-0.7,8.3-0.7,8.9c0,0.4,0,0.7,0.1,1
			C244.7,352.5,250.4,352.7,251,352.7z"/>
		<polygon class="st3" points="98.8,156.8 314.7,156.8 349.7,287.6 131.3,287.6 		"/>
		<polygon class="st6" points="339.5,282 137.4,282 130.1,253.2 127.3,242.1 126.2,237.5 118.8,207.9 118.4,206.4 114.5,190.8 
			112.7,183.8 111.2,177.8 107.7,163.8 307,163.8 310.8,177.8 312.5,183.8 314.4,190.8 327.1,236.8 327.1,236.9 328.2,240.8 
			328.7,242.6 337.4,274.4 		"/>
		<polygon class="st19" points="310.8,177.8 111.2,177.8 107.7,163.8 307,163.8 		"/>
		<g>
			<path class="st20" d="M115.9,170.1c-0.2-1,0.3-1.7,1.3-1.7c1,0,1.9,0.8,2.2,1.7c0.2,1-0.3,1.7-1.3,1.7S116.2,171.1,115.9,170.1z"
				/>
			<path class="st20" d="M121.8,170.1c-0.2-1,0.3-1.7,1.3-1.7c1,0,1.9,0.8,2.2,1.7c0.2,1-0.3,1.7-1.3,1.7
				C123,171.9,122,171.1,121.8,170.1z"/>
			<path class="st20" d="M128,170.1c-0.2-1,0.3-1.7,1.3-1.7c1,0,1.9,0.8,2.2,1.7c0.2,1-0.3,1.7-1.3,1.7S128.2,171.1,128,170.1z"/>
		</g>
	</g>
	<path class="st21" d="M267.3,82.5c8.2-9.6,20.8-28.9,29.3-38.7c1.7-2,0.3-5.2-2.4-5.2h-15.4l14.6-32.9c0.6-1.4-1.3-2.5-2.2-1.3
		l-35.2,47.1c-1,1.4,0.1,3.3,1.8,3.1l17.5-2.2L264.8,81C264.2,82.6,266.2,83.8,267.3,82.5z"/>
	<path class="st3" d="M194.6,140.9c1.8-9.4,3-26.9,4.9-36.7c0.4-2-1.7-3.5-3.5-2.5l-10.3,5.8l-2.6-27.3c-0.1-1.2-1.8-1.2-2,0
		l-5.8,44.5c-0.2,1.3,1.3,2.2,2.4,1.4l10.8-8l3.8,22.9C192.6,142.1,194.4,142.2,194.6,140.9z"/>
	<g>
		<path class="st22" d="M348.4,284.8l-175.7,14.8c-13.3,1.1-23-12.5-17.5-24.7l74.4-166.6c5.6-12.6,23-14.1,30.7-2.6l101.2,151.8
			C368.9,268.6,361.7,283.6,348.4,284.8z"/>
		<g>
			<path class="st21" d="M348.9,291.4l-175.7,14.8c-8.6,0.7-16.8-3.1-21.8-10.1c-5-7.1-5.9-16-2.4-23.9l74.4-166.6
				c3.7-8.2,11.2-13.5,20.1-14.3c8.9-0.8,17.2,3.3,22.2,10.7l101.2,151.8c4.8,7.2,5.4,16.2,1.7,24
				C365,285.6,357.6,290.7,348.9,291.4z M244.7,104.6c-4,0.3-7.4,2.7-9,6.4l-74.4,166.6c-1.6,3.6-1.2,7.6,1.1,10.8
				c2.3,3.2,5.9,4.9,9.8,4.6l175.7-14.8c3.9-0.3,7.2-2.6,8.9-6.1c1.7-3.5,1.4-7.6-0.8-10.8L254.7,109.4
				C252.5,106.1,248.7,104.3,244.7,104.6z"/>
		</g>
		<g>
			<g>
				<path class="st21" d="M240.6,259.3c-0.2-2.3,0-4.4,0.7-6.4c0.6-2,1.6-3.7,3-5.3c1.4-1.5,3-2.8,5-3.7c2-1,4.3-1.6,6.9-1.8
					c2.6-0.2,5,0,7.2,0.6c2.2,0.6,4.1,1.6,5.7,2.8c1.6,1.3,2.9,2.9,3.8,4.7c1,1.9,1.6,3.9,1.7,6.2c0.2,2.3,0,4.4-0.7,6.3
					c-0.6,2-1.7,3.7-3,5.2c-1.4,1.5-3.1,2.8-5.1,3.7c-2,1-4.4,1.6-7,1.8c-2.6,0.2-5,0-7.1-0.6c-2.1-0.6-4-1.6-5.6-2.8
					c-1.6-1.3-2.9-2.8-3.8-4.7C241.4,263.6,240.8,261.5,240.6,259.3z M267.8,227.5l-25.3,2.1l-10.9-86.2l32.5-2.7L267.8,227.5z"/>
			</g>
		</g>
	</g>
	<g>
		<path class="st5" d="M131.5,232.8c0,0,0.6-1.2,0.9-1.8c0.4-0.6,1.9-2.3,2.1-1.9c0.3,0.4,1.3,3,0.7,3.7c-0.6,0.7,0,2-2.7,2.8
			L131.5,232.8z"/>
		<path class="st14" d="M101.1,225c0,0,14,11.7,19.5,10.6c4.3-0.8,11-3,11-3s1.8,1.7,1.3,3.7c0,0-8.6,8.1-14.8,8.2
			c-9.6,0.1-14.1-4.8-14.1-4.8L101.1,225z"/>
		<path class="st23" d="M76.4,348.5c0,0,0.4,6.6,1.7,6.7c0.2,0,6.4,0,6.4,0l8,0c0,0-0.1-1.9-2.4-2.3c-2.3-0.4-6.3-2.1-7.7-5.2
			C81,344.4,76.4,348.5,76.4,348.5z"/>
		<path class="st8" d="M76,349c0,0,2.4,0.8,4.3,0.8c2.1,0,4.1-0.6,4.1-0.6s0.5-4.4,3-14.2c1.3-5.1,3.2-11.7,5.9-19.9
			c7.4-22.6,9.7-35.9,9.9-37.1c0-0.1,0-0.1,0-0.1l0,0l-22.9-10c0,0,2.8,31.2-0.8,43.2c-0.5,1.7-0.9,3.6-1.3,5.7
			C75.9,329.7,76,349,76,349z"/>
		<path class="st9" d="M87.4,335c1.3-5.1,3.2-11.7,5.9-19.9c7.4-22.6,9.7-35.9,9.9-37.1c0,0,0-0.1,0-0.1l-22.9-10
			c0,0,2.8,31.2-0.8,43.2C79,312.7,87.4,335,87.4,335z"/>
		<path class="st24" d="M94.3,348.5c0,0,0.4,6.6,1.7,6.7c0.2,0,6.4,0,6.4,0l8,0c0,0-0.1-1.9-2.4-2.3c-2.3-0.4-6.3-2.1-7.7-5.2
			C98.9,344.4,94.3,348.5,94.3,348.5z"/>
		<path class="st8" d="M107.3,268.6c0,0,0.3,20.2-3.2,45c-3.5,24.8-2.3,35.3-2.3,35.3s-2.4,0.8-3.4,0.9c-2.5,0.2-5-0.6-5-0.6
			s-5-24.8-3.6-37.2s-6.9-42.6-6.9-42.6L107.3,268.6z"/>
		<path class="st5" d="M91,221.3l4.5,2.9l4.1-1.1c0.7-1.1,0.9-3.1,1-4.9c0-1.8-0.2-3.2-0.2-3.2l-6-2.7l-2.2-1c0,0,0.2,1.8,0.2,2.1
			C92.7,218.1,91,221.3,91,221.3z"/>
		<path class="st13" d="M107.4,274.2c-5.6,5.4-26.6,4.5-27.9-1.4c-1.3-5.9,1.4-50.3,10.9-53.1c2-0.6,12.5,2.8,12.5,2.8
			s1.7,4.3,2.7,9.8c0.2,1.1,0.8,12.4,1.3,23c0.2,5,0.4,9.8,0.5,13.3C107.5,271.9,107.5,274.1,107.4,274.2z"/>
		<path class="st25" d="M92.7,213.5c1.2,2.1,5.5,3.9,7.8,4.7c0-1.8-0.2-3.2-0.2-3.2l-6-2.7C93,212.3,92.2,212.6,92.7,213.5z"/>
		<path class="st5" d="M102.6,214.6c0,0-9.7,3-11.5-3c-1.8-6.1-4.3-9.8,1.9-12c6.1-2.2,8-0.2,9.1,1.7
			C103.2,203.1,105.1,213.6,102.6,214.6z"/>
		<path class="st26" d="M101.7,200.6c0,0-0.6,7.1-2.1,6.8c-1.5-0.3-3.1-1-2.9,1.2c0.2,2.1-1.4,5.8-3.5,5.8c-4.5,0-9.4-11.6-8.2-13.8
			C88.6,194.2,106.9,192.9,101.7,200.6z"/>
		<path class="st14" d="M100.3,219.8c-0.1-0.1-7.2-3.2-8.1-3c-0.8,0.3-1.9,2.8-1.9,2.8l12.5,2.8
			C102.9,222.5,101.9,220.5,100.3,219.8z"/>
		<g>
			<path class="st27" d="M144.5,254.2l-39.8,37.5c-0.8,0.7-1.8,1-2.2,0.5l-1.3-1.4c-0.4-0.4-0.1-1.4,0.7-2.1l39.8-37.5
				c0.8-0.7,1.8-1,2.2-0.5l1.3,1.4C145.6,252.5,145.3,253.5,144.5,254.2z"/>
			<path class="st6" d="M122.2,275.2l-17.5,16.4c-0.8,0.7-1.8,1-2.2,0.5l-1.3-1.4c-0.4-0.4-0.1-1.4,0.7-2.1l17.5-16.4L122.2,275.2z"
				/>
			<path class="st27" d="M135.3,240c1.5,5,4.4,9.7,8.5,13.6c12.5,11.8,32.3,11.2,44.1-1.3c11.6-12.4,11.2-31.8-0.9-43.6
				c-0.2-0.2-0.3-0.3-0.5-0.5c-12.5-11.8-32.3-11.2-44.1,1.3C134.5,218,132.2,229.7,135.3,240z M144.3,211.3
				c6.9-7.3,16.7-10.2,25.8-8.6c5.4,0.9,10.5,3.4,14.8,7.4c11.6,10.9,12.1,29,1.2,40.6c-4,4.3-9,7-14.3,8.3c-9.1,2.1-19-0.2-26.3-7
				C133.9,241,133.4,222.8,144.3,211.3z"/>
			<g class="st28">
				<path class="st29" d="M186.1,250.6c-4,4.3-9,7-14.3,8.3c-9.1,2.1-19-0.2-26.3-7c-11.6-10.9-12.1-29-1.2-40.6
					c6.9-7.3,16.7-10.2,25.8-8.6c5.4,0.9,10.5,3.4,14.8,7.4C196.4,220.9,196.9,239.1,186.1,250.6z"/>
			</g>
		</g>
		<path class="st14" d="M107.4,268.6c-21.9-15.6-20.1-36.5-20.1-36.5c8,4.5,16,14.5,19.6,23.2C107.1,260.3,107.3,265.1,107.4,268.6z
			"/>
		<g>
			<path class="st5" d="M129,261.5c1.5-0.4,2.6-1.5,2.8-1.7c0,0,0.7,0-0.1,1.5c-0.1,0.1-0.2,0.4-0.3,0.6c0,0.1,0,0.2,0.1,0.2
				c0.9,0.1,1.8-0.3,3.5,0.1c0.2,0,0.3,0.6,0.3,0.9c0,0.4,0,0.9-0.5,1.5c-0.3,0.4-1,0.8-2.8,1.5c-0.7,0.3-2.5,0.1-4.3-0.5l-1.4-0.6
				l0.4-2.6l0.4,0.1C127.7,262.3,128.4,261.6,129,261.5z"/>
			<path class="st13" d="M94.1,222.5c0,0-19.7,3.8,5.8,32.3c4.1,4.6,26.1,10.5,26.1,10.5s2.2-1.9,1.1-3.4c0,0-15.2-11-18.5-12.8
				c-1.5-0.8-5.8-17.6-8.3-21.6C97.9,223.4,94.1,222.5,94.1,222.5z"/>
		</g>
		<path class="st5" d="M132.1,233.1c0,0,0.6-1.2,0.8-1.9c0.1-0.6,0.9-2.5,1.3-2.9c0.1-0.1,0.6,0,0.6,0.6c0,0.2-0.1,0.7-0.3,1.2
			c-0.4,0.9-0.3,2.1-0.4,2.5C133.7,233.7,132.1,233.1,132.1,233.1z"/>
	</g>
	<g>
		<g>
			<path class="st5" d="M139.9,184.3c-0.3,0.4-0.4,0.8-0.2,1.3c0,0,0,0,0,0c0.3,0.8,1.3,1.8,2.5,2.7c0.2,0.1,0.3,0.2,0.4,0.3
				c0,0,0.1,0.1,0.1,0.1c0,0,0,0,0.1,0.1c1.1,1,0.7,1.2,2.7,3.3c2.2,2.3,3.8,2.4,4.2,2.2c0.4-0.2-0.4-1.4-1.2-2.8
				c0-0.1-0.1-0.1-0.1-0.2c-0.1-0.2-0.2-0.4-0.3-0.6c-1-1.7-0.7-2.5-0.5-5c0.2-2,3.2-11.3,3.2-11.3l-4.3-0.7c0,0-1.3,7.4-2.7,8.5
				c-0.8,0.6-1.6,0.6-2.4,1.1c-0.1,0-0.1,0.1-0.2,0.1C140.7,183.6,140.2,183.9,139.9,184.3z"/>
			<path class="st9" d="M139.9,184.3c-0.3,0.4-0.4,0.8-0.2,1.3c0,0,0,0,0,0c0.4,0.8,1.4,1.8,2.5,2.7c0.1,0.1,0.3,0.2,0.4,0.3
				c0,0,0.1,0.1,0.1,0.1c0,0,0,0,0.1,0.1c1.1,1,0.7,1.2,2.7,3.3c2.2,2.3,3.8,2.4,4.2,2.2c0.4-0.2-0.4-1.4-1.2-2.8
				c-0.4-0.2-2.5-1-4-3c-1.3-1.7-2.2-3.8-3.1-5.1c-0.1,0-0.2,0-0.3,0C140.7,183.6,140.2,183.9,139.9,184.3z"/>
			<path class="st5" d="M174.6,181.6c0.3,1.3,2.2,1.1,4.3,0.6c2.1-0.5,1.6,0.1,4.6-0.2c3-0.3,3.9-1.5,4-1.9c0.1-0.4-1.4-0.5-3-0.7
				c-0.2,0-0.4,0-0.6-0.1c-1.8-0.2-3.1-1.4-4.8-2.3c-1.6-0.9-3.9-4.6-3.9-4.6l-4.1,0.3c0,0,2.2,3.3,3,4.7c0.5,0.8,0.5,2,0.4,2.8
				C174.5,180.6,174.5,181.1,174.6,181.6z"/>
			<path class="st9" d="M178.9,182.2c2.1-0.5,1.6,0.1,4.6-0.2c3-0.3,3.9-1.5,4-1.9c0.1-0.4-1.4-0.5-3-0.7l0,0c0,0-1.8,1.3-4.3,1.3
				c-2,0-4.2-0.5-5.6-0.5c0,0.5-0.1,0.9,0,1.4C174.9,182.9,176.8,182.7,178.9,182.2z"/>
			<path class="st9" d="M158.8,155.2l-3.9,10.4l-5,13.6c0,0-1.4,0.1-2.7-0.2c-1.2-0.3-2.6-1.3-2.6-1.3s1.4-14.6,4-22.9
				c0.7-2.1,1.4-3.9,2.2-4.9C154.9,145,158.8,155.2,158.8,155.2z"/>
			<path class="st8" d="M154.9,138.7c-2.2-0.7-7.9,0-14.2,1.1c-1.7,0.3-3.5-0.5-4.4-2l0,0l-15.7-1.2c0,0-5.2,11.5-2.3,18.8
				c0.4,1.1,1.3,1.7,2.7,1.8c0,0,0,0,0,0c0,0,9.5,0,12.5,0c7.8,0,16.5-5.3,17.6-5.6c1.8-0.4,2.6,3.3,4.4,7.2
				c1.8,3.9,17.3,17.1,17.3,17.1s2.4,0,3.4-0.3c1.1-0.4,1.4-0.9,1.4-0.9S160.6,140.5,154.9,138.7z"/>
			<path class="st26" d="M134.7,91.8c-1.2-0.7-2.3-0.8-3-0.8c-0.5,0-1,0-1.4-0.1c-6-0.9-9.6,7.8-9.8,10.4c-0.4,4.8-2.9,5.5-6.5,8.6
				c-7.2,6-5.1,13.1-1.2,15.7c2.4,1.6,6.5,0,6.5,0c0.1,0,11.4-6.3,16.9-9.4C144.6,115.1,138.1,93.8,134.7,91.8z"/>
			<path class="st5" d="M131.6,113.6c0,0-2.7,1-4.6,0.1c-1.7-0.8-3.1-3.6-3-3.6c0.8,0,1.7-0.7,2.3-5.3l0.3,0.1l5.7,2
				c0,0-0.4,1.8-0.7,3.6C131.4,112,131.3,113.4,131.6,113.6z"/>
			<path class="st30" d="M132.3,107c0,0-0.2,1-0.6,2.8c-3.3-0.6-4.7-3.1-5.1-4.9L132.3,107z"/>
			<path class="st5" d="M133.2,108.8c0,0-7.8-1-7-5.9c0.7-4.8,0.2-8.2,5.2-7.7c5,0.5,5.7,2.4,5.8,4.1
				C137.3,101,135.2,109,133.2,108.8z"/>
			<path class="st26" d="M136.9,96.7c0,0-5,4.3-8.3,4.6c-3.4,0.3-4.7-0.7-4.7-0.7s2-1.7,3.2-4.3c0.4-0.8,1.1-1.3,2-1.4
				C131.4,94.6,136,94.5,136.9,96.7z"/>
			<path class="st26" d="M133.7,96.3c0,0,1.7,1.6,2.2,2.8c0.5,1.2,0.7,3.9,0.3,5c0,0,2.6-5,1.1-7.5C135.8,94,133.7,96.3,133.7,96.3z"
				/>
			<path class="st13" d="M138.1,125.1c-0.2,15.7-0.1,12.4-1.8,13.9c-0.4,0.4-1.6,0.6-3.1,0.7c-4.8,0.3-13.3-0.5-13.6-1.4
				c-1.1-3.1-0.3-4-1.3-8.8c-0.1-0.5-0.2-1-0.4-1.6c-0.8-3.2-1.5-4.3,1.2-9.5c2.5-4.7,5.1-8.5,5.3-8.4c6.6,3.9,7.1,0.6,7.1,0.6
				S138.2,117.4,138.1,125.1z"/>
			<path class="st8" d="M154.9,165.5l-5,13.6c0,0-1.4,0.1-2.7-0.2c-1.2-0.3-2.6-1.3-2.6-1.3s1.4-14.6,4-22.9L154.9,165.5z"/>
			<path class="st13" d="M131.6,110.6c0,0,6.7,1.1,7.5,4.1c0.8,2.9,3.4,20.5,3.4,20.5s-1.9,1.9-3.5,0.3c-1.6-1.6-5-16.5-5-16.5
				L131.6,110.6z"/>
			<path class="st14" d="M133.2,139.6c-4.8,0.3-13.3-0.5-13.6-1.4c-1.1-3.1-0.3-4-1.3-8.8l2.3-6.5c0,0-0.4,7.3,1.8,9.2
				c2.1,1.9,8.8,3.7,9.8,5.3C132.8,138.2,133.1,139,133.2,139.6z"/>
			<path class="st5" d="M127.7,136.6c0,0,4.8-1.1,5.5-0.6c0.8,0.4,2.6,2,2.9,2.5c0.2,0.5-1.7-0.4-2.3-0.6c-0.4-0.1-1.5,0.3-2,0.4
				c-2.2,0.7-3.6,0.4-3.6,0.4L127.7,136.6z"/>
			<path class="st13" d="M124.5,109.9c0,0-6.4,0.4-8.6,3.5c-3.1,4.3-9.3,22.8-5.7,25.3c4,2.8,18.1,0.7,18.1,0.7s0.5-2.2-0.2-3.3
				c-0.7-1.1-11.3-2.8-11.8-3.3c-0.5-0.5,6.1-9.6,6.1-11C122.5,120.4,124.5,109.9,124.5,109.9z"/>
			<path class="st5" d="M133.5,137.3c0,0,1,1.3,1.3,1.4c0.3,0.2,0.5,0.1,0.5,0.1l-0.7-1.2L133.5,137.3z"/>
			<path class="st5" d="M133.2,135.9l2.9,1.4c0,0-0.1,0.2-0.5,0.2c-0.4,0-1.3-0.3-1.3-0.3L133.2,135.9z"/>
		</g>
		<polygon class="st9" points="157.9,139.2 127.7,139.2 127.7,139.9 157.7,139.9 		"/>
		<polygon class="st9" points="134.8,139.9 157.7,139.9 164.6,122.8 141.7,122.8 		"/>
		<path class="st31" d="M151.9,131.4c0.2-0.6-0.2-1.1-0.8-1.1c-0.6,0-1.2,0.5-1.4,1.1c-0.2,0.6,0.2,1.1,0.8,1.1
			C151.1,132.4,151.7,132,151.9,131.4z"/>
	</g>
	<g>
		<path class="st26" d="M306.8,204.5c-3.1-1-5.2,0.3-5.2,0.3c-8.9,0.4-9.2,9.5-8.2,12.9c1.5,4.8-3.7,8.5,2,10.4
			c6.7,2.2,12.3-0.4,11.9,0.7C328.4,230.4,313.8,206.8,306.8,204.5z"/>
		<path class="st13" d="M297.6,248.8c0,0-0.8,1.7-2.4,3.6c-1.8,2.3-11.5-3.2-10.7-3.6c0.8-0.4,5.7-14.4,6.9-16.2
			c1.2-1.8,5.1-2.7,5.1-2.7L297.6,248.8z"/>
		<path class="st32" d="M330.3,343.3c0,0,2.7,2.4,2.2,4.2c-0.5,1.7-2.9,2.9-3.3,5c-0.3,2.1-1.6,3.3-2.8,3.3c-1.2,0-5.6,0-5.6,0
			s-0.9-1.5,1.2-1.9c2.1-0.4,2.9-2.9,2.7-5.2c-0.1-2.3,0.2-5.4,0.2-5.4l4.4-1L330.3,343.3z"/>
		<path class="st7" d="M307.7,344.3c0,0,1,10.3-0.2,10.9l-15,0c0,0,0-1.7,2.4-2.1c2.4-0.4,6.6-1.8,7.4-4.9
			C302.9,345,307.7,344.3,307.7,344.3z"/>
		<path class="st13" d="M319.2,241.8c0,0,0.2,3.2,0,6.9c-0.1,2.5-2.7,5.9-3,6.7c-0.9,2.1-1.9,2.4-1.9,2.4l-7.9,1.9l-2.8,0.7
			l-8.7-2.6c0,0-4-11.1-2.4-17.4c1.6-6.3,4-10.6,4-10.6s5.9-1.3,16.4-0.6L319.2,241.8z"/>
		<path class="st14" d="M320,248.8c-0.1,2.5-3.4,5.8-3.8,6.6c-0.9,2.1-1.9,2.4-1.9,2.4l-7.9,1.9l-1.4-4.1c0,0,11.5-3,9.7-13.7
			L320,248.8z"/>
		<path class="st9" d="M295.4,259.5c0,0-4.3,13.5-4.6,18.1c-0.3,4.6,8.3,65.2,8.6,67.3c0.3,2,2.8,3.3,2.8,3.3s1.1,0.7,2.8,0.2
			c2.3-0.6,3-1.4,3-1.4s3.4-43.2,1.3-58.6c-2.1-15.4-2.1-28.8-2.1-28.8H295.4z"/>
		<path class="st8" d="M313.8,259.1c0,0,6.6,8.9,7.2,14.8c0.6,6,1,27,2.3,32.9s6.1,17.1,6.1,35.3c0,0-0.5,1-2,1.6
			c-0.5,0.2-1.2,0.4-1.8,0.5c-1.3,0.3-2.6-0.3-3.2-1.5c-3.3-6.6-13.6-27.7-14.2-32.1c-0.4-3.1-3.7-23.7-10.8-35.7
			c-1.7-2.9,1.1-14.4,1.1-14.4L313.8,259.1z"/>
		<path class="st9" d="M294.7,257.5c0,0,1.7,1.4,5.2,1.4c4.1,0.1,14.3-1.1,14.3-1.1s0.5,1.3,0.4,2.6c0,0-12.5,3.1-19.7,0.5
			C295,260.9,294.1,259.2,294.7,257.5z"/>
		<g>
			<path class="st31" d="M298.9,262.5c-1,0-1.9-1-1.9-2.1c0-1.2,0.8-2.1,1.9-2.1s1.9,1,1.9,2.1C300.8,261.5,300,262.5,298.9,262.5z
				 M298.9,258.8c-0.7,0-1.3,0.7-1.3,1.5c0,0.8,0.6,1.5,1.3,1.5s1.3-0.7,1.3-1.5C300.2,259.5,299.6,258.8,298.9,258.8z"/>
		</g>
		<polygon class="st33" points="307.9,266.3 289.2,266.5 280,244.8 298.7,244.6 		"/>
		<path class="st5" d="M305.5,256.5l-1.4-1.7c0,0-0.9-0.8-1.6-1c-0.7-0.1-2.1-1-2.2-0.7c-0.1,0.2,1.1,1.9,1.1,1.9l0.1,0
			c-1.4,1.1-5,0.1-5.4,0.6c-0.5,0.5,0.7,1.7,1.4,2.3c0.7,0.6,2.6,1.7,4.2,1.2c1.1-0.3,2.9-0.7,2.9-0.7L305.5,256.5z"/>
		<path class="st5" d="M281.4,248.6c0,0,1.2-1.3,1.9-0.7c0.7,0.6-0.2,3.8-0.9,3.5C281.7,251.1,281,249,281.4,248.6z"/>
		<path class="st13" d="M312.9,229.3c0,0,5.4,0.6,9.2,7.6c3,5.5,8.2,15.7,6.3,18.6c-0.9,1.3-9.1,5.8-25,3.2c0,0,0.3-2,1.5-2.9
			c0,0,13.4-4.3,13.4-5.2c0-1.6-1.8-3-9.3-10.5C307,238,312.9,229.3,312.9,229.3z"/>
		<path class="st5" d="M308.8,229.6c0.2-0.2-0.1-1-0.3-2.5c-0.3-1.3-0.7-3.4-0.7-5.7l-0.4,0.1l-6.7,1.1c0,0,0.2,1.8,0.2,3.5
			c0,0,0,0,0,0c0,1.5-0.4,3.7,0.1,3.9C303.5,231.5,308.1,230.5,308.8,229.6z"/>
		<path class="st34" d="M300.7,222.6c0,0,0.1,2.5,0.1,4.2c3.7-0.1,5.7-3.7,6.5-5.3L300.7,222.6z"/>
		<path class="st5" d="M300.3,225.5c0,0,8.7-1.2,7.9-6.7c-0.9-5.4-0.3-9.2-5.9-8.7c-5.6,0.6-6.4,2.8-6.5,4.7
			C295.6,216.8,298,225.7,300.3,225.5z"/>
		<path class="st26" d="M298.3,210.7c0,0,3.4,6,7.2,6.3c3.8,0.4,5.2-0.9,5.2-0.9s-3.2-1.8-4.4-5.6
			C306.3,210.6,299.6,207.4,298.3,210.7z"/>
		<path class="st26" d="M298.9,211.1c0,0-1.7,0.9-2.2,2.3c-0.5,1.4-0.9,3.1-0.4,5.2c0,0-2.5-4-0.9-6.8
			C297.2,208.9,298.9,211.1,298.9,211.1z"/>
	</g>
	<path class="st9" d="M491,356.5H7.8c-0.4,0-0.8-0.4-0.8-0.8l0,0c0-0.4,0.4-0.8,0.8-0.8H491c0.4,0,0.8,0.4,0.8,0.8v0
		C491.7,356.2,491.4,356.5,491,356.5z"/>
</g>
</svg>
